# xmcd
#
# Track frame offsets: 
#        150
#        8120
#        26846
#        45983
#        59024
#        85472
#        102457
#        124692
#        143297
#        161199
#
# Disc length: 2406 seconds
#
# Revision: 2
# Processed by: cddbd v1.5.2PL0 Copyright (c) Steve Scherf et al.
# Submitted via: ExactAudioCopy v0.95b4
#
DISCID=8109640a
DTITLE=31Knots - It Was High Time To Escape
DYEAR=2003
DGENRE=Lo-Fi
TTITLE0=A Half Life In Two Movements
TTITLE1=Darling, I
TTITLE2=The Gospel According To Efficiency
TTITLE3=No Sound
TTITLE4=We Still Have Legs
TTITLE5=Without Wine
TTITLE6=That Which Has No Name
TTITLE7=At Peace
TTITLE8=Played Out For Punchlines
TTITLE9=Matters From Ashes
EXTD=YEAR: 2003
EXTT0=
EXTT1=
EXTT2=
EXTT3=
EXTT4=
EXTT5=
EXTT6=
EXTT7=
EXTT8=
EXTT9=
PLAYORDER=
